<?xml version="1.0" standalone="no"?><!DOCTYPE svg PUBLIC "-//W3C//DTD SVG 1.1//EN" "http://www.w3.org/Graphics/SVG/1.1/DTD/svg11.dtd"><svg t="1737527558822" class="icon" viewBox="0 0 1024 1024" version="1.1" xmlns="http://www.w3.org/2000/svg" p-id="1589" xmlns:xlink="http://www.w3.org/1999/xlink" width="200" height="200"><path d="M747.804444 145.578667L527.36 268.629333 293.091556 133.745778 451.527111 46.023111a125.155556 125.155556 0 0 1 122.424889 0.625778z m-447.715555 736.881777l-171.576889-93.468444a125.155556 125.155556 0 0 1-65.194667-109.681778V517.063111l236.771556 126.520889v238.933333zM453.973333 315.221333L309.418667 393.102222v158.663111l-246.101334-130.844444v-91.022222A125.155556 125.155556 0 0 1 128.455111 220.16l76.288-41.642667 249.344 136.533334z" fill="#575757" p-id="1590"></path><path d="M834.218667 189.041778l62.577777 34.816a125.155556 125.155556 0 0 1 64.113778 109.169778v102.4l-226.702222 135.623111V393.102222l-138.808889-77.880889 238.933333-126.293333z m-464.497778 489.244444l146.261333 86.072889 141.710222-79.644444-3.413333 246.784-82.659555 46.136889a125.155556 125.155556 0 0 1-122.311112 0l-79.644444-44.885334v-254.236444z m295.480889-247.409778v168.96l-142.222222 78.791112-142.620445-80.270223V435.427556l146.773333-79.644445h2.616889l135.395556 75.093333z m295.480889 91.477334v163.953778a125.155556 125.155556 0 0 1-62.577778 108.088888l-156.387556 90.453334v-235.064889z" fill="#1D1D20" opacity=".3" p-id="1591"></path></svg>